<?xml version="1.0" encoding="UTF-8" standalone="no"?>
<!-- Created with Inkscape (http://www.inkscape.org/) -->

<svg
   xmlns:dc="http://purl.org/dc/elements/1.1/"
   xmlns:cc="http://creativecommons.org/ns#"
   xmlns:rdf="http://www.w3.org/1999/02/22-rdf-syntax-ns#"
   xmlns:svg="http://www.w3.org/2000/svg"
   xmlns="http://www.w3.org/2000/svg"
   xmlns:sodipodi="http://sodipodi.sourceforge.net/DTD/sodipodi-0.dtd"
   xmlns:inkscape="http://www.inkscape.org/namespaces/inkscape"
   width="1000"
   height="1000.681"
   viewBox="0 0 1000 1000.681"
   id="svg2"
   version="1.1"
   inkscape:version="0.91 r13725"
   sodipodi:docname="Huawei.svg">
  <defs
     id="defs4">
    <radialGradient
       fx="0"
       fy="0"
       cx="0"
       cy="0"
       r="1"
       gradientUnits="userSpaceOnUse"
       gradientTransform="matrix(30.668899,0,0,-30.668899,54.739258,480.55713)"
       spreadMethod="pad"
       id="radialGradient3572">
      <stop
         style="stop-opacity:1;stop-color:#f9ab95"
         offset="0"
         id="stop3574" />
      <stop
         style="stop-opacity:1;stop-color:#ed1c24"
         offset="0.42008579"
         id="stop3576" />
      <stop
         style="stop-opacity:1;stop-color:#ed1c24"
         offset="0.426971"
         id="stop3578" />
      <stop
         style="stop-opacity:1;stop-color:#ed1c24"
         offset="0.87256252"
         id="stop3580" />
      <stop
         style="stop-opacity:1;stop-color:#981015"
         offset="1"
         id="stop3582" />
    </radialGradient>
    <radialGradient
       fx="0"
       fy="0"
       cx="0"
       cy="0"
       r="1"
       gradientUnits="userSpaceOnUse"
       gradientTransform="matrix(30.666946,0,0,-30.666946,54.740234,480.55811)"
       spreadMethod="pad"
       id="radialGradient3546">
      <stop
         style="stop-opacity:1;stop-color:#f9ab95"
         offset="0"
         id="stop3548" />
      <stop
         style="stop-opacity:1;stop-color:#ed1c24"
         offset="0.42008579"
         id="stop3550" />
      <stop
         style="stop-opacity:1;stop-color:#ed1c24"
         offset="0.426971"
         id="stop3552" />
      <stop
         style="stop-opacity:1;stop-color:#ed1c24"
         offset="0.87256252"
         id="stop3554" />
      <stop
         style="stop-opacity:1;stop-color:#981015"
         offset="1"
         id="stop3556" />
    </radialGradient>
    <radialGradient
       fx="0"
       fy="0"
       cx="0"
       cy="0"
       r="1"
       gradientUnits="userSpaceOnUse"
       gradientTransform="matrix(30.662826,0,0,-30.662826,54.738281,480.55322)"
       spreadMethod="pad"
       id="radialGradient3520">
      <stop
         style="stop-opacity:1;stop-color:#f9ab95"
         offset="0"
         id="stop3522" />
      <stop
         style="stop-opacity:1;stop-color:#ed1c24"
         offset="0.42008579"
         id="stop3524" />
      <stop
         style="stop-opacity:1;stop-color:#ed1c24"
         offset="0.426971"
         id="stop3526" />
      <stop
         style="stop-opacity:1;stop-color:#ed1c24"
         offset="0.87256252"
         id="stop3528" />
      <stop
         style="stop-opacity:1;stop-color:#981015"
         offset="1"
         id="stop3530" />
    </radialGradient>
    <radialGradient
       fx="0"
       fy="0"
       cx="0"
       cy="0"
       r="1"
       gradientUnits="userSpaceOnUse"
       gradientTransform="matrix(30.668426,0,0,-30.668426,54.737793,480.55615)"
       spreadMethod="pad"
       id="radialGradient3494">
      <stop
         style="stop-opacity:1;stop-color:#f9ab95"
         offset="0"
         id="stop3496" />
      <stop
         style="stop-opacity:1;stop-color:#ed1c24"
         offset="0.42008579"
         id="stop3498" />
      <stop
         style="stop-opacity:1;stop-color:#ed1c24"
         offset="0.426971"
         id="stop3500" />
      <stop
         style="stop-opacity:1;stop-color:#ed1c24"
         offset="0.87256252"
         id="stop3502" />
      <stop
         style="stop-opacity:1;stop-color:#981015"
         offset="1"
         id="stop3504" />
    </radialGradient>
    <radialGradient
       fx="0"
       fy="0"
       cx="0"
       cy="0"
       r="1"
       gradientUnits="userSpaceOnUse"
       gradientTransform="matrix(30.633362,0,0,-30.633347,54.729981,480.55664)"
       spreadMethod="pad"
       id="radialGradient3468">
      <stop
         style="stop-opacity:1;stop-color:#f9ab95"
         offset="0"
         id="stop3470" />
      <stop
         style="stop-opacity:1;stop-color:#ed1c24"
         offset="0.42008579"
         id="stop3472" />
      <stop
         style="stop-opacity:1;stop-color:#ed1c24"
         offset="0.426971"
         id="stop3474" />
      <stop
         style="stop-opacity:1;stop-color:#ed1c24"
         offset="0.87256252"
         id="stop3476" />
      <stop
         style="stop-opacity:1;stop-color:#981015"
         offset="1"
         id="stop3478" />
    </radialGradient>
    <radialGradient
       fx="0"
       fy="0"
       cx="0"
       cy="0"
       r="1"
       gradientUnits="userSpaceOnUse"
       gradientTransform="matrix(30.633118,0,0,-30.633118,54.732422,480.55762)"
       spreadMethod="pad"
       id="radialGradient3442">
      <stop
         style="stop-opacity:1;stop-color:#f9ab95"
         offset="0"
         id="stop3444" />
      <stop
         style="stop-opacity:1;stop-color:#ed1c24"
         offset="0.42008579"
         id="stop3446" />
      <stop
         style="stop-opacity:1;stop-color:#ed1c24"
         offset="0.426971"
         id="stop3448" />
      <stop
         style="stop-opacity:1;stop-color:#ed1c24"
         offset="0.87256252"
         id="stop3450" />
      <stop
         style="stop-opacity:1;stop-color:#981015"
         offset="1"
         id="stop3452" />
    </radialGradient>
    <radialGradient
       fx="0"
       fy="0"
       cx="0"
       cy="0"
       r="1"
       gradientUnits="userSpaceOnUse"
       gradientTransform="matrix(30.641281,0,0,-30.641281,54.736328,480.56445)"
       spreadMethod="pad"
       id="radialGradient3416">
      <stop
         style="stop-opacity:1;stop-color:#f9ab95"
         offset="0"
         id="stop3418" />
      <stop
         style="stop-opacity:1;stop-color:#ed1c24"
         offset="0.42008579"
         id="stop3420" />
      <stop
         style="stop-opacity:1;stop-color:#ed1c24"
         offset="0.426971"
         id="stop3422" />
      <stop
         style="stop-opacity:1;stop-color:#ed1c24"
         offset="0.87256252"
         id="stop3424" />
      <stop
         style="stop-opacity:1;stop-color:#981015"
         offset="1"
         id="stop3426" />
    </radialGradient>
    <radialGradient
       fx="0"
       fy="0"
       cx="0"
       cy="0"
       r="1"
       gradientUnits="userSpaceOnUse"
       gradientTransform="matrix(30.638077,0,0,-30.638077,54.730957,480.56006)"
       spreadMethod="pad"
       id="radialGradient3390">
      <stop
         style="stop-opacity:1;stop-color:#f9ab95"
         offset="0"
         id="stop3392" />
      <stop
         style="stop-opacity:1;stop-color:#ed1c24"
         offset="0.42008579"
         id="stop3394" />
      <stop
         style="stop-opacity:1;stop-color:#ed1c24"
         offset="0.426971"
         id="stop3396" />
      <stop
         style="stop-opacity:1;stop-color:#ed1c24"
         offset="0.87256252"
         id="stop3398" />
      <stop
         style="stop-opacity:1;stop-color:#981015"
         offset="1"
         id="stop3400" />
    </radialGradient>
    <clipPath
       clipPathUnits="userSpaceOnUse"
       id="clipPath3356">
      <path
         d="m 0,521.57 368.5,0 L 368.5,0 0,0 0,521.57 Z"
         id="path3358"
         inkscape:connector-curvature="0" />
    </clipPath>
  </defs>
  <sodipodi:namedview
     id="base"
     pagecolor="#ffffff"
     bordercolor="#666666"
     borderopacity="1.0"
     inkscape:pageopacity="0.0"
     inkscape:pageshadow="2"
     inkscape:zoom="0.25"
     inkscape:cx="424.2474"
     inkscape:cy="692.78433"
     inkscape:document-units="px"
     inkscape:current-layer="layer1"
     showgrid="false"
     units="px"
     inkscape:window-width="1366"
     inkscape:window-height="705"
     inkscape:window-x="-8"
     inkscape:window-y="-8"
     inkscape:window-maximized="1" />
  <metadata
     id="metadata7">
    <rdf:RDF>
      <cc:Work
         rdf:about="">
        <dc:format>image/svg+xml</dc:format>
        <dc:type
           rdf:resource="http://purl.org/dc/dcmitype/StillImage" />
        <dc:title></dc:title>
      </cc:Work>
    </rdf:RDF>
  </metadata>
  <g
     inkscape:label="Layer 1"
     inkscape:groupmode="layer"
     id="layer1"
     transform="translate(0,-51.681213)">
    <g
       id="layer1-1"
       transform="matrix(3.3557047,0,0,3.3557047,-582.02544,-689.03622)">
      <g
         id="g3348"
         transform="matrix(7.0133699,0,0,-7.0133699,184.4516,489.91397)">
        <path
           d="m 0,0 3.467,0 0,2.77 1.555,0 0,-6.834 -1.555,0 0,2.854 -3.467,0 0,-2.854 -1.559,0 0,6.834 L 0,2.77 0,0 Z"
           style="fill:#231f20;fill-opacity:1;fill-rule:nonzero;stroke:none"
           id="path3350"
           inkscape:connector-curvature="0" />
      </g>
      <g
         transform="matrix(7.0133699,0,0,-7.0133699,-22.64833,3618.6134)"
         id="g3352">
        <g
           id="g3354"
           clip-path="url(#clipPath3356)">
          <g
             id="g3360"
             transform="translate(37.3755,444.7798)">
            <path
               d="m 0,0 c 0,-1.208 0.381,-1.714 1.67,-1.714 1.285,0 1.658,0.506 1.658,1.714 l 0,4.095 1.559,0 0,-4.131 c 0,-0.872 -0.106,-1.473 -0.438,-1.839 -0.605,-0.664 -1.494,-0.938 -2.779,-0.938 -1.289,0 -2.184,0.274 -2.795,0.938 -0.338,0.371 -0.422,0.972 -0.422,1.839 l 0,4.131 L 0,4.095 0,0 Z"
               style="fill:#231f20;fill-opacity:1;fill-rule:nonzero;stroke:none"
               id="path3362"
               inkscape:connector-curvature="0" />
          </g>
          <g
             id="g3364"
             transform="translate(45.3774,444.8823)">
            <path
               d="M 0,0 2.207,0 1.084,2.63 0,0 Z m 1.969,3.992 3.154,-6.834 -1.73,0 -0.682,1.626 -3.219,0 -0.654,-1.626 -1.652,0 3.13,6.834 1.653,0 z"
               style="fill:#231f20;fill-opacity:1;fill-rule:nonzero;stroke:none"
               id="path3366"
               inkscape:connector-curvature="0" />
          </g>
          <g
             id="g3368"
             transform="translate(51.2056,448.8745)">
            <path
               d="M 0,0 1.711,-5.254 3.154,0 4.992,0 6.646,-5.254 8.244,0 l 1.6,0 -2.287,-6.834 -1.907,0 -1.578,5.098 -1.379,-5.098 -1.9,0 L -1.672,0 0,0 Z"
               style="fill:#231f20;fill-opacity:1;fill-rule:nonzero;stroke:none"
               id="path3370"
               inkscape:connector-curvature="0" />
          </g>
          <g
             id="g3372"
             transform="translate(63.145,446.0962)">
            <path
               d="m 0,0 4.303,0 0,-1.188 -4.313,0 C 0,-2.421 0.523,-2.869 1.754,-2.869 l 2.549,0 0,-1.187 -2.623,0 c -0.893,0 -1.588,0.065 -2.309,0.599 -0.766,0.559 -1.133,1.458 -1.133,2.693 0,2.416 1.1,3.542 3.487,3.542 l 2.578,0 0,-1.194 -2.549,0 C 0.625,1.584 0.061,1.071 0,0"
               style="fill:#231f20;fill-opacity:1;fill-rule:nonzero;stroke:none"
               id="path3374"
               inkscape:connector-curvature="0" />
          </g>
          <path
             d="m 68.825,448.875 1.625,0 0,-6.834 -1.625,0 0,6.834 z"
             style="fill:#231f20;fill-opacity:1;fill-rule:nonzero;stroke:none"
             id="path3376"
             inkscape:connector-curvature="0" />
        </g>
      </g>
      <g
         transform="matrix(7.0133699,0,0,-7.0133699,-22.64833,3618.6134)"
         id="g3378">
        <g
           id="g3380">
          <g
             id="g3386">
            <g
               id="g3388">
              <path
                 d="m 31.014,471.791 c 0.14,-2.671 2.151,-4.255 2.151,-4.255 l 0,0 c 3.24,-3.157 11.084,-7.141 12.904,-8.049 l 0,0 c 0.024,-0.002 0.119,-0.036 0.174,0.035 l 0,0 c 0,0 0.075,0.059 0.037,0.155 l 0,0 c -4.991,10.904 -11.816,19.172 -11.816,19.172 l 0,0 c 0,0 -3.715,-3.527 -3.45,-7.058"
                 style="fill:url(#radialGradient3390);stroke:none"
                 id="path3402"
                 inkscape:connector-curvature="0" />
            </g>
          </g>
        </g>
      </g>
      <g
         transform="matrix(7.0133699,0,0,-7.0133699,-22.64833,3618.6134)"
         id="g3404">
        <g
           id="g3406">
          <g
             id="g3412">
            <g
               id="g3414">
              <path
                 d="m 31.809,456.488 c 1.415,-2.523 3.801,-4.486 6.285,-3.883 l 0,0 c 1.717,0.429 5.596,3.137 6.875,4.054 l 0,0 -0.004,0.001 c 0.1,0.087 0.071,0.161 0.071,0.161 l 0,0 c -0.038,0.117 -0.172,0.117 -0.172,0.117 l 0,0 0,0.005 -13.055,-0.455 z"
                 style="fill:url(#radialGradient3416);stroke:none"
                 id="path3428"
                 inkscape:connector-curvature="0" />
            </g>
          </g>
        </g>
      </g>
      <g
         transform="matrix(7.0133699,0,0,-7.0133699,-22.64833,3618.6134)"
         id="g3430">
        <g
           id="g3432">
          <g
             id="g3438">
            <g
               id="g3440">
              <path
                 d="m 28.685,462.349 c 1.416,-2.994 4.121,-3.902 4.121,-3.902 l 0,0 c 1.247,-0.513 2.496,-0.546 2.496,-0.546 l 0,0 c 0.195,-0.035 7.765,-0.004 9.792,0.004 l 0,0 c 0.088,0 0.135,0.088 0.135,0.088 l 0,0 c 0.063,0.102 -0.047,0.198 -0.047,0.198 l 0,0 0,0.001 c -5.734,3.866 -16.849,9.805 -16.849,9.805 l 0,0 c -1.011,-3.127 0.352,-5.648 0.352,-5.648"
                 style="fill:url(#radialGradient3442);stroke:none"
                 id="path3454"
                 inkscape:connector-curvature="0" />
            </g>
          </g>
        </g>
      </g>
      <g
         transform="matrix(7.0133699,0,0,-7.0133699,-22.64833,3618.6134)"
         id="g3456">
        <g
           id="g3458">
          <g
             id="g3464">
            <g
               id="g3466">
              <path
                 d="m 43.993,484.086 c -3.457,-0.894 -4.274,-4.03 -4.274,-4.03 l 0,0 c -0.63,-1.974 0.018,-4.14 0.018,-4.14 l 0,0 c 1.15,-5.121 6.83,-13.531 8.052,-15.298 l 0,0 c 0.088,-0.087 0.153,-0.054 0.153,-0.054 l 0,0 c 0.122,0.033 0.125,0.144 0.125,0.161 l 0,0 c 1.875,18.782 -1.974,23.761 -1.974,23.761 l 0,0 c -0.567,-0.053 -2.1,-0.4 -2.1,-0.4"
                 style="fill:url(#radialGradient3468);stroke:none"
                 id="path3480"
                 inkscape:connector-curvature="0" />
            </g>
          </g>
        </g>
      </g>
      <g
         transform="matrix(7.0133699,0,0,-7.0133699,-22.64833,3618.6134)"
         id="g3482">
        <g
           id="g3484">
          <g
             id="g3490">
            <g
               id="g3492">
              <path
                 d="m 50.313,460.713 0.006,0 c 0.01,-0.121 0.1,-0.146 0.1,-0.146 l 0,0 c 0.124,-0.048 0.187,0.073 0.187,0.073 l 0,0 0,-0.003 c 1.256,1.809 6.897,10.181 8.052,15.279 l 0,0 c 0,0 0.616,2.47 0.015,4.14 l 0,0 c 0,0 -0.85,3.185 -4.313,4.025 l 0,0 c 0,0 -0.998,0.257 -2.055,0.405 l 0,0 c 0,0 -3.869,-4.982 -1.992,-23.773"
                 style="fill:url(#radialGradient3494);stroke:none"
                 id="path3506"
                 inkscape:connector-curvature="0" />
            </g>
          </g>
        </g>
      </g>
      <g
         transform="matrix(7.0133699,0,0,-7.0133699,-22.64833,3618.6134)"
         id="g3508">
        <g
           id="g3510">
          <g
             id="g3516">
            <g
               id="g3518">
              <path
                 d="m 53.509,456.931 c 0,0 -0.116,-0.016 -0.147,-0.102 l 0,0 c 0,0 -0.03,-0.114 0.052,-0.172 l 0,0 0,-0.002 c 1.245,-0.898 5.032,-3.546 6.86,-4.061 l 0,0 c 0,0 3.375,-1.15 6.304,3.884 l 0,0 -13.069,0.457 0,-0.004 z"
                 style="fill:url(#radialGradient3520);stroke:none"
                 id="path3532"
                 inkscape:connector-curvature="0" />
            </g>
          </g>
        </g>
      </g>
      <g
         transform="matrix(7.0133699,0,0,-7.0133699,-22.64833,3618.6134)"
         id="g3534">
        <g
           id="g3536">
          <g
             id="g3542">
            <g
               id="g3544">
              <path
                 d="m 53.219,458.198 0,-10e-4 c 0,0 -0.097,-0.066 -0.064,-0.19 l 0,0 c 0,0 0.055,-0.097 0.132,-0.097 l 0,0 0,-0.005 c 2.053,0 9.831,-0.008 10.03,0.026 l 0,0 c 0,0 1.004,0.039 2.246,0.516 l 0,0 c 0,0 2.766,0.882 4.2,4.023 l 0,0 c 0,0 1.282,2.563 0.292,5.555 l 0,0 c 0,0 -11.1,-5.953 -16.836,-9.827"
                 style="fill:url(#radialGradient3546);stroke:none"
                 id="path3558"
                 inkscape:connector-curvature="0" />
            </g>
          </g>
        </g>
      </g>
      <g
         transform="matrix(7.0133699,0,0,-7.0133699,-22.64833,3618.6134)"
         id="g3560">
        <g
           id="g3562">
          <g
             id="g3568">
            <g
               id="g3570">
              <path
                 d="m 52.133,459.731 0.006,0 c 0,0 -0.064,-0.127 0.033,-0.209 l 0,0 c 0,0 0.09,-0.068 0.176,-0.015 l 0,0 c 1.872,0.93 9.652,4.887 12.875,8.029 l 0,0 c 0,0 2.041,1.639 2.15,4.27 l 0,0 c 0.235,3.658 -3.441,7.043 -3.441,7.043 l 0,0 c 0,0 -6.813,-8.244 -11.799,-19.118"
                 style="fill:url(#radialGradient3572);stroke:none"
                 id="path3584"
                 inkscape:connector-curvature="0" />
            </g>
          </g>
        </g>
      </g>
    </g>
  </g>
</svg>
